<svg xmlns="http://www.w3.org/2000/svg" xmlns:xlink="http://www.w3.org/1999/xlink" id="Layer_1" data-name="Layer 1" viewBox="0 0 246.99 179.32"><defs><style>.cls-1,.cls-4{fill:#1b4a98;}.cls-2,.cls-3,.cls-4{fill-rule:evenodd;}.cls-2{fill:url(#linear-gradient);}.cls-3{fill:#231f20;}</style><linearGradient id="linear-gradient" x1="101.32" y1="-7.72" x2="94.27" y2="8.99" gradientTransform="translate(10.32 38.81) rotate(-0.69)" gradientUnits="userSpaceOnUse"><stop offset="0" stop-color="#253d8b"></stop><stop offset="0.54" stop-color="#6487c4"></stop><stop offset="0.6" stop-color="#5374b6"></stop><stop offset="0.68" stop-color="#3f5ca4"></stop><stop offset="0.78" stop-color="#304a98"></stop><stop offset="0.88" stop-color="#284090"></stop><stop offset="1" stop-color="#253d8e"></stop></linearGradient></defs><path class="cls-1" d="M82.53,136.85v-4.5H100a1.13,1.13,0,0,0,1.13-1.13,1.16,1.16,0,0,0-1.13-1.13H85.34a2.2,2.2,0,0,1-1.6-.65,2.22,2.22,0,0,1-.65-1.6v-6.73a2.24,2.24,0,0,1,.65-1.61,2.21,2.21,0,0,1,1.6-.66h19.71v4.5H88.72a1.1,1.1,0,0,0-.81.33,1.14,1.14,0,0,0-.32.8,1.13,1.13,0,0,0,.32.8,1.09,1.09,0,0,0,.81.32h14.64a2.29,2.29,0,0,1,2.25,2.25v6.76a2.18,2.18,0,0,1-.67,1.6,2.21,2.21,0,0,1-1.58.65Z"></path><path class="cls-1" d="M109,136.85v-18h4.5v6.75h5.63l6.75-6.75h6.2l-9,9,9,9h-6.2l-6.75-6.76h-5.63v6.76Z"></path><path class="cls-1" d="M134.88,136.85v-18h4.5v18Z"></path><path class="cls-1" d="M142.76,136.85v-18H163a2.27,2.27,0,0,1,2.25,2.25v6.75a2.25,2.25,0,0,1-2.25,2.25H147.27v6.76Zm16.89-11.26a1.08,1.08,0,0,0,.79-.32,1.1,1.1,0,0,0,.34-.8,1.12,1.12,0,0,0-.34-.8,1.09,1.09,0,0,0-.79-.33H147.27v2.25Z"></path><path class="cls-2" d="M87.32,48.79l5.82,1.26h.09c.26,0,1.85,0,1.7,1.51l-.22,2.5a7.86,7.86,0,0,1-.2,1.18c-.19.78-.29,2.36,2,2.43,0,0,5.79.8,10.35-2.6l0,0c.58-.57,25.07-24.29,46.45-17.11a.11.11,0,0,0,.12-.18c-1.31-1.5-1.65-3.08-11.62-4.66h0c-.56-.07-21.41-2.46-32-3.56a.33.33,0,0,0-.11.64c2.38.55,4.89,1.17,6,1.55,0,0,.57.43-1,.38,0,0-17.76-1.75-22.22-1.37a.32.32,0,0,0-.07.63c1.48.47,5.12,1.37,15.43,3.16a2,2,0,0,1,.44.12l.47.17a.52.52,0,0,1,.3.33c.07.22.1.42-.5.6l-.27.09a24.65,24.65,0,0,0-8,5.38s-.76,1.07-3,.55c-.81-.19-1.24-.41-2.4-.61-5.47-.94-23.56-3.51-31.39-3.44a.32.32,0,0,0-.09.63l4.29,1.34L93.2,47.37s.91.46-.35.37c0,0-9.93-1.06-15.38-1.59a.33.33,0,0,0-.1.65C79.43,47.29,82.61,48,87.32,48.79Z"></path><path class="cls-3" d="M135,38.58c.66-.41,8.86-3.25,18.47-.34a.35.35,0,0,1,.21.12,24.11,24.11,0,0,1,4.1,13.76v0c0,.32-.8,5.78-3.55,8.1a4.53,4.53,0,0,1-3.42,1s-1.33.24-2.35-2.64a2.48,2.48,0,0,0-2-1.62l-9.85-2.74s-.58-.64.57-.55l8.22,1s.11-.21-1.29-.6h0l-15-5.59-.07,0-.82-.56s-.24-.21,1,0L144,50s.87.14.42-.83c0,0-2.11-5-8.75-9.58C135.23,39.28,134.72,38.72,135,38.58Z"></path><path class="cls-4" d="M103.94,58.41l15.93,25.07a.19.19,0,0,0,.28,0l9.16-7.88a.19.19,0,0,0,0-.3L104.21,58.16A.19.19,0,0,0,103.94,58.41Z"></path><path class="cls-4" d="M146.64,61.45,120.07,85.84a.77.77,0,0,0,.18,1.26l7.21,3.62a.73.73,0,0,1,.31,1l-13.16,23.42a.09.09,0,0,0,.14.11l26.7-26.51a.44.44,0,0,0-.1-.69L134.15,84a.45.45,0,0,1-.17-.63l12.9-21.71A.15.15,0,0,0,146.64,61.45Z"></path><circle class="cls-1" cx="129.33" cy="64.52" r="6.13"></circle></svg>