<svg xmlns="http://www.w3.org/2000/svg" x="0px" y="0px" width="100" height="100" viewBox="0 0 48 48">
<path fill="#fff" d="M4.868,43.303l2.694-9.835C5.9,30.59,5.026,27.324,5.027,23.979C5.032,13.514,13.548,5,24.014,5c5.079,0.002,9.845,1.979,13.43,5.566c3.584,3.588,5.558,8.356,5.556,13.428c-0.004,10.465-8.522,18.98-18.986,18.98c-0.001,0,0,0,0,0h-0.008c-3.177-0.001-6.3-0.798-9.073-2.311L4.868,43.303z"></path>
<path fill="#fff" d="M4.868,43.803c-0.132,0-0.26-0.052-0.355-0.148c-0.125-0.127-0.174-0.312-0.127-0.483l2.639-9.636c-1.636-2.906-2.499-6.206-2.497-9.556C4.532,13.238,13.273,4.5,24.014,4.5c5.21,0.002,10.105,2.031,13.784,5.713c3.679,3.683,5.704,8.577,5.702,13.781c-0.004,10.741-8.746,19.48-19.486,19.48c-3.189-0.001-6.344-0.788-9.144-2.277l-9.875,2.589C4.953,43.798,4.911,43.803,4.868,43.803z"></path>
<path fill="#cfd8dc" d="M24.014,5c5.079,0.002,9.845,1.979,13.43,5.566c3.584,3.588,5.558,8.356,5.556,13.428c-0.004,10.465-8.522,18.98-18.986,18.98h-0.008c-3.177-0.001-6.3-0.798-9.073-2.311L4.868,43.303l2.694-9.835C5.9,30.59,5.026,27.324,5.027,23.979C5.032,13.514,13.548,5,24.014,5 M24.014,42.974C24.014,42.974,24.014,42.974,24.014,42.974C24.014,42.974,24.014,42.974,24.014,42.974 M24.014,42.974C24.014,42.974,24.014,42.974,24.014,42.974C24.014,42.974,24.014,42.974,24.014,42.974 M24.014,4C24.014,4,24.014,4,24.014,4C12.998,4,4.032,12.962,4.027,23.979c-0.001,3.367,0.849,6.685,2.461,9.622l-2.585,9.439c-0.094,0.345,0.002,0.713,0.254,0.967c0.19,0.192,0.447,0.297,0.711,0.297c0.085,0,0.17-0.011,0.254-0.033l9.687-2.54c2.828,1.468,5.998,2.243,9.197,2.244c11.024,0,19.99-8.963,19.995-19.98c0.002-5.339-2.075-10.359-5.848-14.135C34.378,6.083,29.357,4.002,24.014,4L24.014,4z"></path>
<path fill="#0059CB" d="M35.176,12.832c-2.98-2.982-6.941-4.625-11.157-4.626c-8.704,0-15.783,7.076-15.787,15.774c-0.001,2.981,0.833,5.883,2.413,8.396l0.376,0.597l-1.595,5.821l5.973-1.566l0.577,0.342c2.422,1.438,5.2,2.198,8.032,2.199h0.006c8.698,0,15.777-7.077,15.78-15.776C39.795,19.778,38.156,15.814,35.176,12.832z"></path>
<g transform="translate(12.16 13.28) scale(0.25) translate(-60.503 -18.315)">
<path d="M84.756,37.559l5.823,1.26a.379.379,0,0,0,.082.007c.265-.012,1.851-.023,1.7,1.511l-.216,2.5a7.727,7.727,0,0,1-.2,1.179c-.192.783-.291,2.358,1.977,2.43,0,0,5.79.8,10.344-2.6a.15.15,0,0,0,.024-.02c.576-.562,25.072-24.284,46.451-17.111a.111.111,0,0,0,.119-.179c-1.316-1.5-1.656-3.073-11.619-4.656l-.023,0c-.561-.064-21.411-2.454-31.982-3.558a.326.326,0,0,0-.107.641c2.375.549,4.891,1.168,5.956,1.553,0,0,.57.429-.979.371,0,0-17.763-1.742-22.215-1.368a.326.326,0,0,0-.07.635c1.479.471,5.115,1.371,15.431,3.154a2.906,2.906,0,0,1,.439.119l.469.174a.554.554,0,0,1,.3.326c.064.226.1.426-.5.6-.055.016-.213.068-.268.088A24.767,24.767,0,0,0,97.654,30s-.757,1.067-3.042.546c-.807-.184-1.237-.41-2.4-.609-5.465-.94-23.563-3.5-31.389-3.441a.325.325,0,0,0-.094.636c1.061.334,2.547.8,4.289,1.34l25.616,7.665s.91.458-.347.369c0,0-9.939-1.059-15.384-1.582a.326.326,0,0,0-.1.641C76.867,36.061,80.049,36.742,84.756,37.559Z" fill="#fff" fill-rule="evenodd"></path>
<path d="M132.4,27.342c.666-.407,8.861-3.245,18.47-.339a.372.372,0,0,1,.209.127,24.106,24.106,0,0,1,4.1,13.76l0,.029c-.042.315-.8,5.778-3.548,8.094a4.536,4.536,0,0,1-3.417.952s-1.332.241-2.352-2.641a2.5,2.5,0,0,0-1.949-1.622l-9.857-2.737s-.572-.637.579-.552l8.218.95s.111-.2-1.295-.594l-.024-.007-15.046-5.583a.325.325,0,0,1-.067-.034l-.825-.563s-.236-.21,1.038-.037l14.84,2.24s.862.144.417-.832c0,0-2.115-5.049-8.746-9.576C132.669,28.049,132.158,27.49,132.4,27.342Z" fill="#fff" fill-rule="evenodd"></path>
<path d="M101.379,47.176,117.3,72.242a.188.188,0,0,0,.28.042l9.161-7.882a.187.187,0,0,0-.016-.3L101.643,46.922A.187.187,0,0,0,101.379,47.176Z" fill="#fff" fill-rule="evenodd"></path>
<path d="M144.077,50.214,117.506,74.6a.778.778,0,0,0,.177,1.268l7.21,3.612a.744.744,0,0,1,.315,1.029l-13.163,23.415a.091.091,0,0,0,.143.109L138.88,77.524a.434.434,0,0,0-.092-.686l-7.208-4.087a.458.458,0,0,1-.168-.632l12.9-21.713A.154.154,0,0,0,144.077,50.214Z" fill="#fff" fill-rule="evenodd"></path>
<circle cx="6.129" cy="6.129" r="6.129" transform="translate(120.631 47.157)" fill="#fff"></circle>
</g>
</svg>