<svg xmlns="http://www.w3.org/2000/svg" width="94.683" height="85.731" viewBox="0 0 94.683 85.731"><g id="Grupo_169" data-name="Grupo 169" transform="translate(-60.503 -18.315)"><g id="Grupo_168" data-name="Grupo 168"><path id="Trazado_1000" data-name="Trazado 1000" d="M84.756,37.559l5.823,1.26a.379.379,0,0,0,.082.007c.265-.012,1.851-.023,1.7,1.511l-.216,2.5a7.727,7.727,0,0,1-.2,1.179c-.192.783-.291,2.358,1.977,2.43,0,0,5.79.8,10.344-2.6a.15.15,0,0,0,.024-.02c.576-.562,25.072-24.284,46.451-17.111a.111.111,0,0,0,.119-.179c-1.316-1.5-1.656-3.073-11.619-4.656l-.023,0c-.561-.064-21.411-2.454-31.982-3.558a.326.326,0,0,0-.107.641c2.375.549,4.891,1.168,5.956,1.553,0,0,.57.429-.979.371,0,0-17.763-1.742-22.215-1.368a.326.326,0,0,0-.07.635c1.479.471,5.115,1.371,15.431,3.154a2.906,2.906,0,0,1,.439.119l.469.174a.554.554,0,0,1,.3.326c.064.226.1.426-.5.6-.055.016-.213.068-.268.088A24.767,24.767,0,0,0,97.654,30s-.757,1.067-3.042.546c-.807-.184-1.237-.41-2.4-.609-5.465-.94-23.563-3.5-31.389-3.441a.325.325,0,0,0-.094.636c1.061.334,2.547.8,4.289,1.34l25.616,7.665s.91.458-.347.369c0,0-9.939-1.059-15.384-1.582a.326.326,0,0,0-.1.641C76.867,36.061,80.049,36.742,84.756,37.559Z" fill="#fff" fill-rule="evenodd"></path><path id="Trazado_1001" data-name="Trazado 1001" d="M132.4,27.342c.666-.407,8.861-3.245,18.47-.339a.372.372,0,0,1,.209.127,24.106,24.106,0,0,1,4.1,13.76l0,.029c-.042.315-.8,5.778-3.548,8.094a4.536,4.536,0,0,1-3.417.952s-1.332.241-2.352-2.641a2.5,2.5,0,0,0-1.949-1.622l-9.857-2.737s-.572-.637.579-.552l8.218.95s.111-.2-1.295-.594l-.024-.007-15.046-5.583a.325.325,0,0,1-.067-.034l-.825-.563s-.236-.21,1.038-.037l14.84,2.24s.862.144.417-.832c0,0-2.115-5.049-8.746-9.576C132.669,28.049,132.158,27.49,132.4,27.342Z" fill="#fff" fill-rule="evenodd"></path><path id="Trazado_1002" data-name="Trazado 1002" d="M101.379,47.176,117.3,72.242a.188.188,0,0,0,.28.042l9.161-7.882a.187.187,0,0,0-.016-.3L101.643,46.922A.187.187,0,0,0,101.379,47.176Z" fill="#fff" fill-rule="evenodd"></path><path id="Trazado_1003" data-name="Trazado 1003" d="M144.077,50.214,117.506,74.6a.778.778,0,0,0,.177,1.268l7.21,3.612a.744.744,0,0,1,.315,1.029l-13.163,23.415a.091.091,0,0,0,.143.109L138.88,77.524a.434.434,0,0,0-.092-.686l-7.208-4.087a.458.458,0,0,1-.168-.632l12.9-21.713A.154.154,0,0,0,144.077,50.214Z" fill="#fff" fill-rule="evenodd"></path><circle id="Elipse_51" data-name="Elipse 51" cx="6.129" cy="6.129" r="6.129" transform="translate(120.631 47.157)" fill="#fff"></circle></g></g></svg>